PathFileType	4	(X/Y/Z)	C:\Users\Vitor Bertoli\OneDrive\Documents\Yolotestes\IMG_0212_Sports2D\IMG_0212_Sports2D_m_person00.trc
DataRate	CameraRate	NumFrames	NumMarkers	Units	OrigDataRate	OrigDataStartFrame	OrigNumFrames
112	112	6	22	m	112	100	401
Frame#	Time	Hip			RHip			RKnee			RAnkle			RBigToe			RSmallToe			RHeel			LHip			LKnee			LAnkle			LBigToe			LSmallToe			LHeel			Neck			Head			Nose			RShoulder			RElbow			RWrist			LShoulder			LElbow			LWrist		
		X1	Y1	Z1	X2	Y2	Z2	X3	Y3	Z3	X4	Y4	Z4	X5	Y5	Z5	X6	Y6	Z6	X7	Y7	Z7	X8	Y8	Z8	X9	Y9	Z9	X10	Y10	Z10	X11	Y11	Z11	X12	Y12	Z12	X13	Y13	Z13	X14	Y14	Z14	X15	Y15	Z15	X16	Y16	Z16	X17	Y17	Z17	X18	Y18	Z18	X19	Y19	Z19	X20	Y20	Z20	X21	Y21	Z21	X22	Y22	Z22
100	0.8928571428571428	2.4675447611269927	0.8500356216672573	0.0	2.450979799390561	0.8673638793575904	0.0	2.7588009534257294	0.5711656963531667	0.0	2.5596402873730275	0.1934907622100973	0.0	2.6941560228955845	0.06875674829318346	0.0	2.6562075833301595	0.06142660771348143	0.0	2.5049195558248476	0.14780910387247853	0.0	2.4694989420891096	0.8516724402448361	0.0	2.238161551973803	0.47172363125642425	0.0	1.8978138279252854	0.17615402144598907	0.0	1.956723533738765	0.005557914525896522	0.0	1.9513185198742713	0.026406401791422316	0.0	1.8177056391112842	0.15898404431817817	0.0	2.9005049416119766	1.239728592653527	0.0	3.1160928154445373	1.4317088013268022	0.0	3.0904748403635316	1.2804165398266631	0.0	2.7561448894656686	1.2728612740330651	0.0	2.4428588100731368	1.3047471442374614	0.0	2.194768368347181	1.1508564268623602	0.0	2.9752844566490912	1.147595325826846	0.0	3.00671674252616	0.9456672534745492	0.0	3.107068806296253	0.9830067470105768	0.0
101	0.9017857142857142	2.4948293103534813	0.8548122004681563	0.0	2.4777344910119767	0.8723623630329916	0.0	2.7804172029089935	0.5711171722065886	0.0	2.5953942740828464	0.1837397386585164	0.0	2.733955657499665	0.06353394888806797	0.0	2.695302080148591	0.05516014883779247	0.0	2.541542762044274	0.1364829146281711	0.0	2.4989990247025577	0.8561209061302459	0.0	2.252896181004441	0.48141821077213953	0.0	1.9118098307472509	0.18630119408223283	0.0	1.9550304595738948	0.01054083834262182	0.0	1.9495782461127649	0.031049439867106943	0.0	1.8311747935135259	0.1727711537293693	0.0	2.9208155685348722	1.2485073315414397	0.0	3.1348918971488953	1.441606109597823	0.0	3.1094432345744774	1.289529961765609	0.0	2.775910308726921	1.277966030705432	0.0	2.4616317540447894	1.3059687714420953	0.0	2.2206828526056714	1.1422164269182509	0.0	2.99796730746061	1.159651822975339	0.0	3.0225901963656994	0.961640625713882	0.0	3.1123125796644153	0.9810895643197675	0.0
102	0.9107142857142857	2.5222614700525448	0.8594773687826072	0.0	2.504539723303312	0.8772640862789036	0.0	2.801012341656493	0.5698280931651163	0.0	2.627251518749767	0.17479363905511425	0.0	2.7679669078776463	0.05832125753543621	0.0	2.7287237099196755	0.04914964226148682	0.0	2.5738551832512138	0.1263799215388491	0.0	2.5288977190839397	0.86041844318025	0.0	2.2707386847265436	0.49016539175160995	0.0	1.9274841312013138	0.19736139429169594	0.0	1.9539204892753717	0.01698860473939676	0.0	1.948396037768678	0.03719195655186251	0.0	1.8465868410845976	0.18804027097705833	0.0	2.941397330027943	1.2569791352282873	0.0	3.153965093282166	1.4512262959880888	0.0	3.128771537054288	1.2983822294456577	0.0	2.7958547086240544	1.2823055117081734	0.0	2.4802677956717747	1.3044326550971814	0.0	2.2478763557877075	1.1297732730025525	0.0	3.020394834932974	1.17148961103692	0.0	3.0372302867680236	0.9774798591600663	0.0	3.116156543876119	0.9762629040390595	0.0
103	0.9196428571428571	2.549772346098473	0.8638080860411649	0.0	2.5313223864603622	0.8819122398433219	0.0	2.820672319341816	0.5673794413475154	0.0	2.655120197260418	0.166619874892301	0.0	2.7963350742934034	0.05308953550055219	0.0	2.756602699188598	0.04334758214943066	0.0	2.601864801089306	0.11735619608695341	0.0	2.5590538960410347	0.8644004383638639	0.0	2.291837020100665	0.4974672615852936	0.0	1.944750599612449	0.20940844138652612	0.0	1.9537890372387738	0.02526254086734837	0.0	1.94824589722748	0.04514760744822984	0.0	1.8638749712390679	0.20481755248825148	0.0	2.9621867755767854	1.2649586526618908	0.0	3.173307210935556	1.460406352208971	0.0	3.1484800447662518	1.3068860241365645	0.0	2.81586627488213	1.285844882020819	0.0	2.4988258917849557	1.3000261982441497	0.0	2.276604313151617	1.1137352467249335	0.0	3.0426437972404092	1.1827545281602614	0.0	3.0509340972991192	0.9925810242668027	0.0	3.118791463960668	0.9687182678961277	0.0
104	0.9285714285714285	2.577287132003497	0.8675785468678471	0.0	2.558056527781399	0.8861044697079885	0.0	2.8394151654408235	0.5638540194129181	0.0	2.6790074457743693	0.15916287001183668	0.0	2.8193763982850832	0.0478445386362219	0.0	2.779236100414615	0.037753689123601844	0.0	2.6256448130225474	0.10930432184081046	0.0	2.589292622381285	0.8678932616429077	0.0	2.316256613554252	0.5029530671974365	0.0	1.9635004252058963	0.2225134306141552	0.0	1.9550495947771593	0.03569862782358777	0.0	1.9496189838910385	0.05519617337218777	0.0	1.8829251709093393	0.22310381662079326	0.0	2.983137939349443	1.2723103302856398	0.0	3.1927857734992013	1.469024495052634	0.0	3.168553367127717	1.3149569198982411	0.0	2.8358571762893447	1.2885430669359619	0.0	2.5174593365225792	1.2927049503475416	0.0	2.3071775829606973	1.094424724765141	0.0	3.0647558973945106	1.1931284035776688	0.0	3.063902972473309	1.0063754567772825	0.0	3.120357443205663	0.9587328490611193	0.0
105	0.9375	2.6047393871304343	0.8705897081372781	0.0	2.584750401129095	0.8896261750793028	0.0	2.8571958556230275	0.5593268181576446	0.0	2.6990119347116375	0.1523456724647036	0.0	2.8375168024754234	0.04262755525194788	0.0	2.79704327991648	0.03240415786757974	0.0	2.6453482573637155	0.10214637583995798	0.0	2.6194076731102696	0.8707416341087832	0.0	2.34397161089546	0.5063786476804716	0.0	1.9836548747837701	0.23671469251767557	0.0	1.9581459572555253	0.04854867253750288	0.0	1.9530082640063897	0.06755070925361151	0.0	1.9036226261057165	0.2428288798338286	0.0	3.004235760401524	1.2789410439648399	0.0	3.212199822089994	1.476999380653028	0.0	3.188951268001995	1.3225089160877075	0.0	2.8558115919096148	1.2903596830692872	0.0	2.536403836689723	1.2824964740260878	0.0	2.339911279676373	1.0722405964910893	0.0	3.0867123051237737	1.202360188809855	0.0	3.076209333463824	1.0184070702546681	0.0	3.1209524256804255	0.946720526353321	0.0
